<svg width="36" height="34" viewBox="0 0 36 34" fill="none" xmlns="http://www.w3.org/2000/svg">
<path d="M17.883 6.09576C17.0433 6.09576 16.3228 5.80031 15.7215 5.20939C15.1306 4.61847 14.8351 3.90316 14.8351 3.06343C14.8351 2.21334 15.1306 1.49284 15.7215 0.901924C16.3228 0.300641 17.0433 0 17.883 0C18.7227 0 19.4432 0.300641 20.0445 0.901924C20.6458 1.49284 20.9464 2.21334 20.9464 3.06343C20.9464 3.90316 20.6458 4.61847 20.0445 5.20939C19.4432 5.80031 18.7227 6.09576 17.883 6.09576ZM13.1557 18.054C12.7617 17.826 12.3626 17.5772 11.9583 17.3076C11.554 17.0381 11.2533 16.6752 11.0563 16.2191C10.8594 15.7629 10.8749 15.1409 11.103 14.353L12.2071 10.4343C12.2796 10.1959 12.2434 10.0145 12.0982 9.89007C11.9531 9.76566 11.782 9.70865 11.5851 9.71901L9.70346 9.85897L9.1281 13.7932C9.05553 14.2286 8.89484 14.5604 8.64603 14.7884C8.40759 15.0062 8.0914 15.0995 7.69746 15.0684C7.29315 15.0269 6.98732 14.861 6.77998 14.5707C6.58301 14.2701 6.51044 13.9021 6.56228 13.4667L7.21539 8.59938C7.2776 8.1847 7.4331 7.85815 7.68191 7.61971C7.94108 7.3709 8.26764 7.23095 8.66158 7.19984L13.4822 6.84218C14.747 6.75925 15.794 6.8992 16.6234 7.26205C17.4528 7.61452 18.1784 8.22099 18.8005 9.08144L21.1486 12.3159L24.5386 10.8231C24.9429 10.6469 25.3057 10.6106 25.6271 10.7142C25.9588 10.8075 26.2076 11.0356 26.3735 11.3985C26.5601 11.7613 26.5808 12.1086 26.4357 12.4403C26.2906 12.7617 26.0159 13.0105 25.6115 13.1868L21.273 15.1306C20.9723 15.255 20.6665 15.2757 20.3555 15.1928C20.0549 15.1098 19.8112 14.9336 19.6246 14.664L18.1318 12.4714C17.9867 12.2641 17.8104 12.176 17.6031 12.2071C17.4061 12.2278 17.2713 12.3522 17.1988 12.5803L16.2035 16.0791L21.2885 19.4225C21.7032 19.6816 21.9313 20.06 21.9727 20.5577C22.0246 21.0553 21.8794 21.4544 21.5373 21.755L16.8256 25.767C16.442 26.0988 16.0532 26.2543 15.6593 26.2336C15.2757 26.2128 14.9595 26.0677 14.7107 25.7981C14.4723 25.5286 14.3686 25.2072 14.3997 24.834C14.4308 24.4504 14.6278 24.1031 14.9906 23.7921L18.3028 20.9309L13.1557 18.054ZM3.96536 29.8413C3.67508 29.5821 3.51439 29.2452 3.48329 28.8305C3.45219 28.4262 3.62325 28.0426 3.99646 27.6797L8.59938 23.1079L10.1389 17.6653C10.4188 17.997 10.7453 18.2977 11.1186 18.5672C11.5021 18.8367 11.9324 19.1063 12.4092 19.3758L12.9224 19.6713L11.1808 24.212C11.0667 24.5023 10.9734 24.7044 10.9008 24.8185C10.8283 24.9325 10.6935 25.0828 10.4965 25.2694L6.04911 29.6702C5.69664 30.0123 5.33379 30.1834 4.96058 30.1834C4.58737 30.1937 4.25563 30.0797 3.96536 29.8413ZM27.2288 16.9344C27.1044 16.6856 27.0888 16.4316 27.1821 16.1724C27.2754 15.9133 27.4517 15.7215 27.7108 15.5971L34.5841 12.3937C34.8433 12.2693 35.1025 12.2537 35.3617 12.347C35.6208 12.4403 35.8022 12.601 35.9059 12.8291C36.02 13.0883 36.0303 13.3474 35.937 13.6066C35.8437 13.8658 35.6727 14.0524 35.4239 14.1664L28.5506 17.3698C28.2914 17.4942 28.0322 17.5098 27.7731 17.4165C27.5139 17.3232 27.3325 17.1625 27.2288 16.9344ZM27.9908 28.8616L30.37 15.3327L32.5004 14.3841L29.9812 28.7838C29.9086 28.7735 29.8309 28.7631 29.748 28.7527C29.665 28.7527 29.5769 28.7579 29.4836 28.7683L27.9908 28.8616ZM0.933025 33.8999C0.673851 33.8999 0.450962 33.8066 0.264357 33.62C0.0881191 33.4438 0 33.2312 0 32.9824C0 32.7025 0.0881191 32.4796 0.264357 32.3138C0.450962 32.1479 0.673851 32.0494 0.933025 32.0183L29.6702 30.2922C30.2818 30.2507 30.7898 30.3855 31.1941 30.6965C31.6088 31.0179 31.8162 31.4792 31.8162 32.0805C31.8162 32.5989 31.6399 33.0291 31.2874 33.3712C30.935 33.7237 30.5099 33.8999 30.0123 33.8999H0.933025Z" fill="black"/>
</svg>
