<svg width="36" height="21" viewBox="0 0 36 21" fill="none" xmlns="http://www.w3.org/2000/svg">
<path d="M25.9844 7.67923C25.3594 7.67923 24.7917 7.52819 24.2812 7.2261C23.7708 6.92402 23.3646 6.51777 23.0625 6.00735C22.7604 5.49694 22.6094 4.93444 22.6094 4.31985C22.6094 3.69485 22.7604 3.13235 23.0625 2.63235C23.3646 2.12194 23.7708 1.71569 24.2812 1.4136C24.7917 1.1011 25.3594 0.944853 25.9844 0.944853C26.599 0.944853 27.1562 1.1011 27.6562 1.4136C28.1667 1.71569 28.5729 2.12194 28.875 2.63235C29.1771 3.13235 29.3281 3.69485 29.3281 4.31985C29.3281 4.93444 29.1771 5.49694 28.875 6.00735C28.5729 6.51777 28.1667 6.92402 27.6562 7.2261C27.1562 7.52819 26.599 7.67923 25.9844 7.67923ZM12.75 9.83548L15.9844 7.71048C16.2031 7.56464 16.3073 7.39277 16.2969 7.19485C16.2865 6.99694 16.2083 6.81985 16.0625 6.6636L13.4688 3.9761L8.75 7.31985C8.30208 7.62194 7.86458 7.73652 7.4375 7.6636C7.02083 7.59069 6.68229 7.4136 6.42188 7.13235C6.10938 6.79902 5.95312 6.38756 5.95312 5.89798C5.96354 5.39798 6.22917 4.96048 6.75 4.58548L12.6562 0.413603C13.0729 0.101103 13.5208 -0.0343137 14 0.00735294C14.4792 0.0490196 14.8906 0.252145 15.2344 0.616728L23.8281 9.55423C23.1823 9.67923 22.6198 9.86673 22.1406 10.1167C21.6719 10.3563 21.2292 10.6115 20.8125 10.8824C20.3958 11.1428 19.9531 11.3667 19.4844 11.5542C19.0156 11.7313 18.4688 11.8199 17.8438 11.8199C17.125 11.8199 16.5 11.7053 15.9688 11.4761C15.4479 11.2365 14.9375 10.9605 14.4375 10.648C13.9479 10.3251 13.3854 10.0542 12.75 9.83548ZM0.953125 15.9761C0.692708 15.9761 0.46875 15.8876 0.28125 15.7105C0.09375 15.523 0 15.299 0 15.0386C0 14.7678 0.09375 14.5386 0.28125 14.3511C0.46875 14.1636 0.692708 14.0699 0.953125 14.0699H2.53125C3.22917 14.0699 3.83854 13.9501 4.35938 13.7105C4.89062 13.4605 5.41667 13.174 5.9375 12.8511C6.45833 12.5282 7.05208 12.2469 7.71875 12.0074C8.38542 11.7574 9.20833 11.6324 10.1875 11.6324C11.1354 11.6324 11.9375 11.7574 12.5938 12.0074C13.2604 12.2469 13.8542 12.5282 14.375 12.8511C14.9062 13.174 15.4427 13.4605 15.9844 13.7105C16.526 13.9501 17.1458 14.0699 17.8438 14.0699C18.5417 14.0699 19.1562 13.9501 19.6875 13.7105C20.2292 13.4605 20.7656 13.174 21.2969 12.8511C21.8281 12.5282 22.4219 12.2469 23.0781 12.0074C23.7448 11.7574 24.5521 11.6324 25.5 11.6324C26.4792 11.6324 27.3021 11.7574 27.9688 12.0074C28.6354 12.2469 29.2292 12.5282 29.75 12.8511C30.2708 13.174 30.7917 13.4605 31.3125 13.7105C31.8438 13.9501 32.4583 14.0699 33.1562 14.0699H34.7344C35.0052 14.0699 35.2292 14.1636 35.4062 14.3511C35.5938 14.5386 35.6875 14.7678 35.6875 15.0386C35.6875 15.299 35.5938 15.523 35.4062 15.7105C35.2292 15.8876 35.0052 15.9761 34.7344 15.9761H33.1562C32.1354 15.9761 31.2812 15.8563 30.5938 15.6167C29.9167 15.3667 29.3177 15.0803 28.7969 14.7574C28.2865 14.4344 27.776 14.1532 27.2656 13.9136C26.7656 13.6636 26.1771 13.5386 25.5 13.5386C24.8542 13.5386 24.2812 13.6636 23.7812 13.9136C23.2812 14.1532 22.7656 14.4344 22.2344 14.7574C21.7135 15.0803 21.1042 15.3667 20.4062 15.6167C19.7188 15.8563 18.8646 15.9761 17.8438 15.9761C16.8229 15.9761 15.9635 15.8563 15.2656 15.6167C14.5781 15.3667 13.9688 15.0803 13.4375 14.7574C12.9167 14.4344 12.4062 14.1532 11.9062 13.9136C11.4062 13.6636 10.8333 13.5386 10.1875 13.5386C9.52083 13.5386 8.93229 13.6636 8.42188 13.9136C7.91146 14.1532 7.39583 14.4344 6.875 14.7574C6.35417 15.0803 5.75521 15.3667 5.07812 15.6167C4.40104 15.8563 3.55208 15.9761 2.53125 15.9761H0.953125ZM1.28125 20.3511C1.03125 20.3511 0.8125 20.2626 0.625 20.0855C0.447917 19.898 0.359375 19.674 0.359375 19.4136C0.359375 19.1636 0.447917 18.9501 0.625 18.773C0.8125 18.5855 1.03125 18.4917 1.28125 18.4917C1.54167 18.4917 1.76042 18.5855 1.9375 18.773C2.125 18.9501 2.21875 19.1636 2.21875 19.4136C2.21875 19.674 2.125 19.898 1.9375 20.0855C1.76042 20.2626 1.54167 20.3511 1.28125 20.3511ZM4.10938 19.8355C3.84896 19.8355 3.63021 19.7469 3.45312 19.5699C3.27604 19.3928 3.1875 19.174 3.1875 18.9136C3.1875 18.6532 3.27604 18.4344 3.45312 18.2574C3.63021 18.0803 3.84896 17.9917 4.10938 17.9917C4.36979 17.9917 4.58854 18.0803 4.76562 18.2574C4.94271 18.4344 5.03125 18.6532 5.03125 18.9136C5.03125 19.174 4.94271 19.3928 4.76562 19.5699C4.58854 19.7469 4.36979 19.8355 4.10938 19.8355ZM6.75 18.6011C6.48958 18.6011 6.26562 18.5126 6.07812 18.3355C5.90104 18.148 5.8125 17.9292 5.8125 17.6792C5.8125 17.4188 5.90104 17.2001 6.07812 17.023C6.26562 16.8355 6.48958 16.7417 6.75 16.7417C7.01042 16.7417 7.22917 16.8355 7.40625 17.023C7.59375 17.2001 7.6875 17.4188 7.6875 17.6792C7.6875 17.9292 7.59375 18.148 7.40625 18.3355C7.22917 18.5126 7.01042 18.6011 6.75 18.6011ZM9.57812 17.8667C9.31771 17.8667 9.09896 17.7834 8.92188 17.6167C8.74479 17.4396 8.65625 17.2157 8.65625 16.9449C8.65625 16.6844 8.74479 16.4657 8.92188 16.2886C9.09896 16.1115 9.31771 16.023 9.57812 16.023C9.83854 16.023 10.0573 16.1115 10.2344 16.2886C10.4115 16.4657 10.5 16.6844 10.5 16.9449C10.5 17.2157 10.4115 17.4396 10.2344 17.6167C10.0573 17.7834 9.83854 17.8667 9.57812 17.8667ZM12.4062 18.6011C12.1458 18.6011 11.9271 18.5126 11.75 18.3355C11.5729 18.148 11.4844 17.9292 11.4844 17.6792C11.4844 17.4188 11.5729 17.2001 11.75 17.023C11.9271 16.8355 12.1458 16.7417 12.4062 16.7417C12.6667 16.7417 12.8854 16.8355 13.0625 17.023C13.2396 17.2001 13.3281 17.4188 13.3281 17.6792C13.3281 17.9292 13.2396 18.148 13.0625 18.3355C12.8854 18.5126 12.6667 18.6011 12.4062 18.6011ZM15.0469 19.8355C14.7969 19.8355 14.5781 19.7469 14.3906 19.5699C14.2135 19.3928 14.125 19.174 14.125 18.9136C14.125 18.6532 14.2135 18.4344 14.3906 18.2574C14.5781 18.0803 14.7969 17.9917 15.0469 17.9917C15.3177 17.9917 15.5417 18.0803 15.7188 18.2574C15.8958 18.4344 15.9844 18.6532 15.9844 18.9136C15.9844 19.174 15.8958 19.3928 15.7188 19.5699C15.5417 19.7469 15.3177 19.8355 15.0469 19.8355ZM17.8594 20.3511C17.599 20.3511 17.3802 20.2626 17.2031 20.0855C17.026 19.898 16.9375 19.674 16.9375 19.4136C16.9375 19.1636 17.026 18.9501 17.2031 18.773C17.3802 18.5855 17.599 18.4917 17.8594 18.4917C18.1198 18.4917 18.3385 18.5855 18.5156 18.773C18.6927 18.9501 18.7812 19.1636 18.7812 19.4136C18.7812 19.674 18.6927 19.898 18.5156 20.0855C18.3385 20.2626 18.1198 20.3511 17.8594 20.3511ZM20.6562 19.8355C20.3958 19.8355 20.1771 19.7469 20 19.5699C19.8229 19.3928 19.7344 19.174 19.7344 18.9136C19.7344 18.6532 19.8229 18.4344 20 18.2574C20.1771 18.0803 20.3958 17.9917 20.6562 17.9917C20.9271 17.9917 21.1458 18.0803 21.3125 18.2574C21.4896 18.4344 21.5781 18.6532 21.5781 18.9136C21.5781 19.174 21.4896 19.3928 21.3125 19.5699C21.1458 19.7469 20.9271 19.8355 20.6562 19.8355ZM23.3125 18.6011C23.0625 18.6011 22.8438 18.5126 22.6562 18.3355C22.4792 18.148 22.3906 17.9292 22.3906 17.6792C22.3906 17.4188 22.4792 17.2001 22.6562 17.023C22.8438 16.8355 23.0625 16.7417 23.3125 16.7417C23.5729 16.7417 23.7917 16.8355 23.9688 17.023C24.1562 17.2001 24.25 17.4188 24.25 17.6792C24.25 17.9292 24.1562 18.148 23.9688 18.3355C23.7917 18.5126 23.5729 18.6011 23.3125 18.6011ZM26.1406 17.8667C25.8802 17.8667 25.6562 17.7834 25.4688 17.6167C25.2917 17.4396 25.2031 17.2157 25.2031 16.9449C25.2031 16.6844 25.2917 16.4657 25.4688 16.2886C25.6562 16.1115 25.8802 16.023 26.1406 16.023C26.401 16.023 26.6198 16.1115 26.7969 16.2886C26.974 16.4657 27.0625 16.6844 27.0625 16.9449C27.0625 17.2157 26.974 17.4396 26.7969 17.6167C26.6198 17.7834 26.401 17.8667 26.1406 17.8667ZM28.9688 18.6011C28.7083 18.6011 28.4844 18.5126 28.2969 18.3355C28.1198 18.148 28.0312 17.9292 28.0312 17.6792C28.0312 17.4188 28.1198 17.2001 28.2969 17.023C28.4844 16.8355 28.7083 16.7417 28.9688 16.7417C29.2292 16.7417 29.4479 16.8355 29.625 17.023C29.8021 17.2001 29.8906 17.4188 29.8906 17.6792C29.8906 17.9292 29.8021 18.148 29.625 18.3355C29.4479 18.5126 29.2292 18.6011 28.9688 18.6011ZM31.6094 19.8355C31.349 19.8355 31.125 19.7469 30.9375 19.5699C30.7604 19.3928 30.6719 19.174 30.6719 18.9136C30.6719 18.6532 30.7604 18.4344 30.9375 18.2574C31.125 18.0803 31.349 17.9917 31.6094 17.9917C31.8698 17.9917 32.0885 18.0803 32.2656 18.2574C32.4427 18.4344 32.5312 18.6532 32.5312 18.9136C32.5312 19.174 32.4427 19.3928 32.2656 19.5699C32.0885 19.7469 31.8698 19.8355 31.6094 19.8355ZM34.4219 20.3511C34.1615 20.3511 33.9427 20.2626 33.7656 20.0855C33.5885 19.898 33.5 19.674 33.5 19.4136C33.5 19.1636 33.5885 18.9501 33.7656 18.773C33.9427 18.5855 34.1615 18.4917 34.4219 18.4917C34.6823 18.4917 34.901 18.5855 35.0781 18.773C35.2552 18.9501 35.3438 19.1636 35.3438 19.4136C35.3438 19.674 35.2552 19.898 35.0781 20.0855C34.901 20.2626 34.6823 20.3511 34.4219 20.3511Z" fill="black"/>
</svg>
